<?xml version="1.0" encoding="utf-8"?>
<!-- Generator: Adobe Illustrator 16.0.0, SVG Export Plug-In . SVG Version: 6.00 Build 0)  -->
<!DOCTYPE svg PUBLIC "-//W3C//DTD SVG 1.1//EN" "http://www.w3.org/Graphics/SVG/1.1/DTD/svg11.dtd">
<svg version="1.1" id="Layer_1" xmlns="http://www.w3.org/2000/svg" xmlns:xlink="http://www.w3.org/1999/xlink" x="0px" y="0px"
	 width="64px" height="64px" viewBox="0 0 64 64" enable-background="new 0 0 64 64" xml:space="preserve">
<path fill="#FFFFFF" d="M64,49.59c-2.328,0.592-3.768,0.026-5.061-1.914l-9.188-12.712l-1.328-1.76l-10.73,14.514
	c-1.226,1.746-2.512,2.507-4.799,1.888l13.739-18.443l-12.792-16.66c2.2-0.428,3.721-0.21,5.07,1.76l9.529,12.87l9.601-12.8
	c1.229-1.746,2.552-2.41,4.76-1.766l-4.96,6.576l-6.72,8.75c-0.8,1-0.69,1.684,0.046,2.65L64,49.59z M0.016,30.854l1.124-5.528
	C4.2,14.386,16.74,9.84,25.388,16.6c5.054,3.976,6.31,9.6,6.06,15.9H2.96C2.532,43.84,10.694,50.684,21.1,47.191
	c3.65-1.226,5.8-4.084,6.876-7.659c0.546-1.792,1.45-2.072,3.134-1.56c-0.86,4.471-2.8,8.207-6.9,10.545
	c-6.126,3.5-14.87,2.368-19.47-2.496C2,43.2,0.868,39.624,0.36,35.8C0.28,35.168,0.12,34.566,0,33.96
	c0.011-1.034,0.016-2.069,0.016-3.104V30.854z M3.012,30.094h25.744c-0.168-8.2-5.274-14.024-12.252-14.074
	C8.844,15.96,3.344,21.646,3.012,30.094z"/>
</svg>
