<?xml version="1.0" encoding="utf-8"?>
<!-- Generator: Adobe Illustrator 16.0.0, SVG Export Plug-In . SVG Version: 6.00 Build 0)  -->
<!DOCTYPE svg PUBLIC "-//W3C//DTD SVG 1.1//EN" "http://www.w3.org/Graphics/SVG/1.1/DTD/svg11.dtd">
<svg version="1.1" id="Layer_1" xmlns="http://www.w3.org/2000/svg" xmlns:xlink="http://www.w3.org/1999/xlink" x="0px" y="0px"
	 width="64px" height="64px" viewBox="0 0 64 64" enable-background="new 0 0 64 64" xml:space="preserve">
<path fill="#FFFFFF" d="M19.126,53.746c-2.44-1.92-5.04-3.756-6.816-6.344c-3.74-4.566-6.62-9.851-8.588-15.406
	c-1.19-3.612-1.6-7.486-3.132-10.96c-1.604-2.52,0.276-5.28,3.04-6.08c1.23-0.236,3.392-1.4,0.78-0.568
	c-2.34,1.716-2.566-1.56-0.166-1.768c1.64-0.22,2.24-1.56,1.68-2.764c-1.76-1.148,4.264-2.406,1.232-4.12
	C4,2.336,11.572,1.68,9.704,5.548C9.26,8.52,14.996,5,13.664,8.436c1.354,1.65,5.068,0.376,4.974,2.69
	c1.972,0.136,2.648,1.794,4.5,1.92c1.92,0.866,5.394,1.548,6.046,3.71c-1.9,1.506-6.306-3.11-6.52,1.06
	c0.576,6.16,0.428,12.504,2.68,18.37c1.066,3.551,3.65,6.347,5.98,9.112c2.234,2.708,5.26,4.616,8.34,6.22
	c2.704,1.276,5.62,2.121,8.566,2.652c1.193-0.914,3.306-4.313,5.168-2.88c0.09,1.612-3.701,3.368-0.181,3.19
	c2.07-0.625,3.505,1.6,5.206-0.408c1.57,1.859,6.52-1.187,5.406,2.611c-1.51,0.975-3.712,0.387-5.225,1.727
	c-2.494-1.246-4.479,1.113-7.239,0.816c-3.066,0.549-6.185,0.77-9.292,0.773c-5.1-0.4-10.306-0.572-15.156-2.348
	c-2.734-0.795-5.4-2.351-7.8-3.908L19.126,53.746z M23.432,55.611c2.668,1.152,5.28,2.369,8.2,2.736
	c4.64,0.645,9.431,1.641,14.086,0.732c-2.108-0.952-4.286,0.37-6.386-0.68c-2.52,0.539-5.2-0.141-7.8-0.475
	c-2.91-1.296-6.052-2.188-8.776-3.871c-3.406-1.244,1.76,1.596,2.68,1.825c2.128,1.208-2.34-0.6-2.972-1.12
	c-1.784-1-2.01-0.792-0.176,0.225l1.12,0.627H23.432z M18.352,52.023c2.586,0.961-0.012-1.819-1.194-1.659
	c-0.524-0.91-2.006-1.486-0.96-1.974c-1.88,0.651-1.968-2.48-2.85-2.033c-1.988-0.627-0.774-2.852-3.14-4.219
	c-0.216-1.44-2.352-2.687-3.032-4.856c-0.3-1.112-2.414-4.3-1.116-1.332c1.104,2.86,3.048,5.306,4.668,7.75
	c1.256,2.327,2.74,4.76,5.028,6.214c0.772,0.74,1.516,1.874,2.604,2.105L18.352,52.023z M10.904,43.844
	C10.994,43.454,11.376,44.688,10.904,43.844z M21.45,53.17C22.022,52.914,20.626,52.846,21.45,53.17z M22.85,53.682
	C22.704,52.977,22.21,54.078,22.85,53.682z M24.61,54.414C25.446,53.618,23.32,53.914,24.61,54.414z M27.622,56.094
	C28.13,55.344,25.996,55.814,27.622,56.094z M21.842,52.064C23.142,51.225,20.162,52.052,21.842,52.064z M23.162,52.725
	C23.122,52.28,22.692,52.924,23.162,52.725z M29.748,56.836c1.06,0.668,6.184,1.464,2.977,0.273
	C32.184,57.223,26.774,55.578,29.748,56.836z M19.292,48.691C19.192,48.248,17.648,48.2,19.292,48.691z M22.358,50.48
	C23.158,49.92,20.702,50.05,22.358,50.48z M24.958,52.08C26.104,51.648,23.102,51.646,24.958,52.08z M18.04,47.33
	c1.24,0.952,5.012,0.12,1.9-0.568c-1.414-0.754-4.6-1.27-2.428,0.454l0.526,0.114H18.04z M26.68,52.604
	C27.2,51.725,24.508,52.1,26.68,52.604z M24.054,50.518c3.04,0.86-2.554-1.92-0.75-0.319l0.4,0.18l0.35,0.136V50.518z
	 M29.318,53.559C32.198,53.586,26.718,53.158,29.318,53.559z M16.932,45.664C16.82,45.128,16.222,45.708,16.932,45.664z
	 M34.186,56.288C34.262,55.32,33.246,57.008,34.186,56.288z M21.846,48.668C21.672,48.158,20.946,48.648,21.846,48.668z
	 M17.206,45.328C18.858,45.229,14.946,44.6,17.206,45.328z M11.712,41.78C11.506,40.988,9.916,40.355,11.712,41.78z M26.136,50.934
	C25.836,50.588,25.996,51.008,26.136,50.934z M35.111,56.443C35.084,55.916,34.624,56.645,35.111,56.443z M25.342,50.114
	C25.502,49.434,23.932,49.908,25.342,50.114z M18.654,45.874C19.884,45.744,16.684,45.044,18.654,45.874z M29.966,52.904
	C31.882,52.145,28.1,52.534,29.966,52.904z M24.082,48.91c2.206,0.283-2.626-1.5-0.486-0.16L24.082,48.91z M31.752,53.626
	c2.061-1.229,1.38,2.886,3.496,0.349c2.086-1.524-1.8,1.883,0.768,0.271c1.86-1.244,4.606,0.59,6.34,1.186
	c1.248-0.06,2.461,1.08,3.74,0.387c2.461-0.664-4.816-0.984-2.908-2.16c-2.252,0.656-3.916-0.78-5.025-2.225
	c-2.528-0.584-5.448-1.875-6.71-4.111c-0.514-0.84,0.74,0.119-0.444-1.254c-1.52-1.354-2.28-2.893-3.304-4.541
	c-1.22-0.649-1.366-2.567-1.488-0.063c0.01-1.58-1.474-2.646-1.84-2.204c-0.006-1.52,1.59-0.76,0.472-1.884
	c-0.24-1.58-1.032-3.22-1.268-5.004c-0.37-0.86-0.052-2.7-1.26-0.754c-0.44,2.054-0.146-2.524,0.54-1.016
	c0.9-1.54-0.324-1.36-0.372-1.146c0.586-1.3,0.372-3.144-0.154-2.44c0.312-1.38,0.494-5.07-0.466-4.416
	c0.58-1.44,1.104-6.594-1.424-4.63c-1.024,0.014-2.796,0.372-3.634,0.788c2.626,1.448-0.264,0.524-1.336,0.292
	c-0.14,1.34-1.2,0.76-2.52,0.774c2.116,0.26-1.03,2.16-2.24,1.424c-1.576,0.752,1.36,2.632,0.03,3.214
	c0.164,0.874-2.414-0.316-2.212,1.708c-1.528-0.644-0.21,2.4,0.556,1.37c2.6,0.704,1.83,2.308,1.896,3.834
	c-0.424,0.888-2.092-2.088-0.372-1.95c-1.36-2.206-1.5-0.8-2.63,0.228c-0.26,0.074,2.88,1.46,0.908,2.14
	c1.734,0.268,1.784,1.786,2.136,2.744c1.04,1.086,0.826-1.2,2.074,0.106c-0.79-1.16-4.18-3.274-1.45-2.601
	c-0.014-1.168-0.494-2.112,0.344-2.09c0.83-1.5-0.868,3.7,1,1.792c0.516-0.226,0.646-1.5,1.574,0.12
	c1.348,1.327,0.488,2.288-1.416,1.071c0.34,1.156,2.546,1.568,2.13,3.375c0.44,1.59,1.054,1.004,1.59,0.912
	c0.4,1.543,0.66,0.407,0.68-0.326c1.924,0.412,1.472,1.549,2.076,2.344c1.326,0.6-1.9-4.057,0.38-1.4
	c2.394,2.16,0.9,3.066-1.25,2.721c1.36-0.11,1.8,1.84,3.5,1.77c1.552,0.74,2.6,3.574-0.072,2.393
	c-0.926-0.837-4.212-1.869-1.528-0.281c2.476,1.148,4.444,1.832,6.832,3.274c1.708,1.2,2.446,2.616,3.094,2.894
	c-1.436,0.687-4.328-0.547-2.2-0.926c-1.34-0.244-2.848-0.92-1.564,0.748c1.092,0.912,3.866,0.816,4.364,0.92
	c-0.42,0.929-1.146,1,0.016,1.074c-1.296,0.692,0.416,0.801,0.536,1.194L31.752,53.626z M29.1,46.139
	c-0.79-0.826-0.994-2.371-0.14-1.027C29.4,45.288,30.36,47.639,29.1,46.139z M37.74,51.6C38.232,51.568,37.754,51.975,37.74,51.6z
	 M27.86,44.09C27.828,42.842,28.144,45.05,27.86,44.09z M27,42.936C26.006,41.016,28.25,43.477,27,42.936z M16.596,35.736
	C17.18,35.58,16.884,36.732,16.596,35.736z M24.876,40.225C25.236,38.878,25.276,41.352,24.876,40.225z M19.026,36.156
	C18.614,35.416,19.886,36.852,19.026,36.156z M24.046,37.764c-0.94-2.105,0.668-1.149,0.21,0.344L24.046,37.764z M15.39,31.992
	c-0.4-0.692-1.114-2.72-0.89-3.34c0.2,1.008,2.144,4.34,0.952,1.4c-1.316-2.479,1.574,0.804,1.872,1.424
	c0.14,0.614-0.812-0.168-0.168,1.276c-1.176-1.644-0.694,0.908-1.764-0.74L15.39,31.992z M12.716,30.148
	C12.826,28.54,13.328,31.248,12.716,30.148z M13.92,30.564C14.494,29.352,14.892,32.254,13.92,30.564z M11,28.364
	c-0.996-0.99-1.716-1.9,0.048-0.614c0.68,0.026-1.51-2.074,0.164-0.668c1.76,0.32,0.868,2.886-0.21,1.28L11,28.364z M12.52,28.324
	C13.1,27.75,12.828,28.888,12.52,28.324z M13.456,28.624C12.576,26.98,14.52,29.314,13.456,28.624z M11.596,26.848
	c-2.896-2.58,3.64,1.346,0.472,0.48L11.596,26.848z M19.892,31.668c-1.254-0.75-0.334-5.288,0.094-2.186
	c1.22-0.394-0.068,1.604,0.84,1.584c-0.14,1.26-0.55,1.713-0.934,0.6V31.668z M22.96,33.482C23.08,32.114,23.22,34.418,22.96,33.482
	z M22.428,32.954C22.568,32.37,22.44,33.643,22.428,32.954z M12.184,26c-1.86-2.566,5.406,2.596,1.192,0.65
	C12.936,26.534,12.406,26.494,12.184,26z M18.094,29.132C17.918,26.972,18.486,29.492,18.094,29.132z M22.58,32.012
	C22.926,30.782,22.606,32.826,22.58,32.012z M12.47,25.02c1.106-0.236,4.6,1.94,1.39,0.62C13.506,25.248,12.748,25.426,12.47,25.02z
	 M21.962,29.752c0.12-2.21,0.66-1.32,0.004,0.32L21.962,29.752z M13.292,24.252c0.452-0.66-1.196-2.986,0.236-0.834
	c0.6,0.492,1.794,0.824,0.76,1.032c1.63,1.44-0.4,0.39-0.994-0.2L13.292,24.252z M21.492,29.064
	C21.802,26.544,21.766,30.538,21.492,29.064z M12.352,21.928C12.696,21.78,12.532,22.388,12.352,21.928z M14.492,23.202
	C15.042,22.046,15.508,24.49,14.492,23.202z M20.526,26.558C20.522,26.118,20.64,27.204,20.526,26.558z M20.176,25.786
	C19.34,23.72,20.976,26.88,20.176,25.786z M19.662,24.43C19.522,23.576,20.142,25.502,19.662,24.43z M20.498,23.07
	c-0.576-1.012,0.726-4.46,0.872-2.32c-0.606,1.668-0.174,2.6,0.246,0.36c0.78-1.76-0.168,3.474-1.12,1.96H20.498z M21.358,17.938
	C21.608,17.63,21.414,18.308,21.358,17.938z M19.92,46.24C19.58,45.939,19.964,46.428,19.92,46.24z M22.88,47.736
	c1.646,0.424,1.64-0.256,0.15-0.461c-0.8-0.743-3.324-1.533-1.064-0.092c0.148,0.4,0.62,0.371,0.914,0.551V47.736z M17.04,43.855
	c0.906,0.681,3.414,1.916,1.292,0.261c0.716-0.832-1.37-1.276-0.68-1.832c-1.76-1.08-1.39-1-0.156-0.946
	c-2.116-0.945,0.306-0.874,0.192-1.359c-0.816-0.16-4.052-1.44-2.148,0.104c-1.936-0.986-0.46,0.368-1.046,0.227
	c-2-0.541,1.76,1.508-0.314,1c1.134,0.899,3.056,2.306,0.48,0.951c-0.34,0.488,1.844,1.23,2.4,1.6L17.04,43.855z M20.134,45.636
	C23.894,46.848,18.288,44.156,20.134,45.636z M35.975,55.232C36.021,54.484,35.46,55.872,35.975,55.232z M37.602,55.918
	c0.869-0.84,0.037,1.34,1.44-0.206c0.015-1.106-0.04-1.76-1.612-0.416c-0.434,0.24-0.625,1.261,0.174,0.62L37.602,55.918z
	 M11.756,39.68C11.49,38.632,9.888,38.636,11.756,39.68z M13.496,40.82C12.85,39.75,11.192,39.85,13.496,40.82z M23.388,46.786
	c0.966,0.86,4.436,0.63,1.172,0.106C24.08,46.178,21.494,46.352,23.388,46.786z M36.984,55.186
	C38.471,53.938,35.544,55.742,36.984,55.186z M40.076,57.311C40.086,56.91,39.436,57.484,40.076,57.311z M40.082,56.75
	C41.729,55.01,38.488,56.85,40.082,56.75z M7.48,36.1c-1.4-2-0.872-2.899-2.224-4.534c-0.256-1.25-2.32-4.086-1.068-1.08
	c1.148,1.76,1.488,4.48,3.292,5.62V36.1z M39.561,56.191C42.59,54.236,38.32,55.34,39.561,56.191z M41.872,57.098
	C43.393,55.798,40.912,56.826,41.872,57.098z M11.24,37.47C11.674,36.824,10.12,37.386,11.24,37.47z M41.391,56.48
	c1.467-0.946-0.341-0.801-0.267,0.086L41.391,56.48z M21.466,43.92C21.416,43.279,20.69,43.975,21.466,43.92z M22.696,44.628
	C22.304,43.836,22.096,44.752,22.696,44.628z M43.746,57.118c1.88-1.36-1.141-0.261-0.395,0.26L43.746,57.118z M43.025,56.77
	C44.561,55.486,41.406,57.338,43.025,56.77z M46.706,59.22C47.734,58.532,45.456,59,46.706,59.22z M12.186,37
	c1.38,0.309,5.51,3.396,3.074,0.214c-1.248-0.37-0.5-3.42-1.774-2.88c0.854,1.428,0.7,2.036-1.092,1.136
	c-2.254-1.1-1.266,0.544-0.826,1c-0.6,0.14,0.794,0.521,0.62,0.532L12.186,37z M5.906,32.04c0.246-1.02-2.274-5.62-1.19-2.304
	C5.106,30.43,5.066,31.746,5.906,32.04z M17.438,39.15C16.726,38.557,17.404,39.066,17.438,39.15z M19.186,39.559
	C19.186,38.479,17.254,39.118,19.186,39.559z M34.34,49.109C34.05,48.37,33.2,49.094,34.34,49.109z M35.068,49.643
	C34.96,49.229,34.668,49.723,35.068,49.643z M41.074,53.426C41.654,53,40.354,53.37,41.074,53.426z M9.04,32.844
	C10.692,32.204,7.27,32.388,9.04,32.844z M33,47.939C32.98,46.87,31.946,48.206,33,47.939z M8.386,31.32
	C9.446,30.96,7.406,31.084,8.386,31.32z M11.466,32.813C11.446,32.46,11.14,32.945,11.466,32.813z M49.042,55.852
	c1.364-0.275,4.476,0.694,4.979-0.359c-1.66-0.04-5.733-1.17-5.926,0.268l0.36,0.061l0.586,0.035V55.852z M12.446,33.061
	C12.47,31.976,11.602,33.02,12.446,33.061z M4.346,27.44C3.978,25.376,2.946,27.128,4.346,27.44z M6.276,27.926
	C6.3,27.262,4.508,27.33,6.276,27.926z M7.38,28.466C7.06,28.206,7.132,28.792,7.38,28.466z M14.326,32.92
	C14.654,32.62,13.552,32.7,14.326,32.92z M6.646,27.24C6.458,25.68,4.406,27.006,6.646,27.24z M2.686,24.67
	C2.63,23.95,2.3,24.942,2.686,24.67z M3.276,24.226C3.18,23.372,2.77,24.334,3.276,24.226z M6.53,26.166
	c1.376-0.54-2.506-1.12-0.28-0.1L6.53,26.166z M50.086,53.08C50.966,52.271,48.966,52.83,50.086,53.08z M55.346,55.807
	C55.7,54.766,54.456,55.945,55.346,55.807z M6.86,24.47C7.006,23.46,5.768,24.67,6.86,24.47z M2.228,21.37
	c-0.244-1.43-0.208-3.93,2.168-3.086c-3.174,0.632,2.2,3.948,1.52,1.328c1.336,0.066,2.612-0.79,1.91,0.506
	c2.634-0.286,4.454-2.57,6.998-2.248c2-0.264,4.144-0.46,6.28-1.26c1.754-0.126,3.44-2.014,2.48-3.134
	c-2.392-0.2-4.896,0.096-7.54,0.624c-2.93,0.608-5.59,1.766-8.546,2.26c-2.88,0.388,0.58,1.066-0.246,1.22
	c-1.5,0.52,1.794,0.872-0.194,1.424c-1.228-0.234-2.506-0.656-1.98-1.95c-2.76,0.36-5.186,1.504-3.004,4.312l0.16,0.002L2.228,21.37
	z M8.884,18c0.646-2.384,3.466,1.96,1.06,0.32C9.658,18.104,9.184,17.93,8.884,18z M9.01,16.844
	C9.944,16.15,9.506,17.234,9.01,16.844z M10.196,16.864c0.086-1.096,2.716,0.6,0.434,0.394L10.196,16.864z M11.816,16.212
	C12.41,15.518,11.988,16.826,11.816,16.212z M12.232,15.932c0.988-1.186,5.586-0.76,2.2-0.116
	C13.532,15.136,12.838,16.216,12.232,15.932z M18.232,15.006C18.084,11.766,21.216,16.156,18.232,15.006z M19.936,14.996
	c0.62-1.632,2.42-0.656,0.29-0.328C20.272,14.842,20.162,15.512,19.936,14.996z M6.19,23.65C8.05,22.51,4.216,22.662,6.19,23.65z
	 M7.566,24.05C8.218,23.356,6.166,23.77,7.566,24.05z M3.514,21.14C4.574,20.32,2.254,20.83,3.514,21.14z M58.454,55.51
	C58.484,54.563,57.643,55.936,58.454,55.51z M52.874,51.7C53.034,50.609,52.154,51.794,52.874,51.7z M59.994,55.88
	c1.486,0.006,4.504-0.46,1.27-0.46C60.756,55.5,58.305,55.48,59.994,55.88z M8.78,23.346c1.204-0.08,1.88-1.326-0.234-1.256
	c-3.28-0.34,2.892,1.124-0.4,0.704c-0.444,0.294,0.628,0.632,0.654,0.55L8.78,23.346z M9.84,23.882
	C9.714,23.11,9.468,24.292,9.84,23.882z M11.1,20.53C11.62,19.882,10.38,20.356,11.1,20.53z M7.1,13.842
	c2.148-0.73,5.084-1.55,6.1,0.36c-1.032-1.24-0.416-2.464,0.56-0.648c1.38,1.836,2.068-0.836,1.172-1.452
	c1.02,1.268,2.18,1.868,0.684,0.08c1.63-1.96-3.26,0.256-4.372,0.234c-0.534,0.24-5.52,1.272-4.14,1.426H7.1z M8.36,11.432
	c1.224-0.924,4.236,0.55,2.304-0.92C10.474,10.346,6.434,11.626,8.36,11.432z M12.824,11.616c1.432,0.036-0.62-1.926,1.088-1.036
	c-0.28-0.916-1.988-1.086-2.824-1.454c-0.472,0.836,0.96,2.5,1.734,2.49H12.824z M9.144,7.564C9.64,6.892,8.274,7.904,9.144,7.564z
	 M10.96,8c2.31-0.306-0.588-0.994-0.466-0.024L10.96,8z M7.552,5.34c-1.626-2.124,3.06,0.356,1.406-1.866
	C7.566,2.368,6.232,4.722,7.552,5.34z M28.42,16.58c0.746-1.32-3.08-1.78-0.5-0.468C28.156,16.192,28.104,16.672,28.42,16.58z"/>
</svg>
