<?xml version="1.0" encoding="utf-8"?>
<!-- Generator: Adobe Illustrator 16.0.0, SVG Export Plug-In . SVG Version: 6.00 Build 0)  -->
<!DOCTYPE svg PUBLIC "-//W3C//DTD SVG 1.1//EN" "http://www.w3.org/Graphics/SVG/1.1/DTD/svg11.dtd">
<svg version="1.1" id="Layer_1" xmlns="http://www.w3.org/2000/svg" xmlns:xlink="http://www.w3.org/1999/xlink" x="0px" y="0px"
	 width="50px" height="50px" viewBox="0 0 50 50" enable-background="new 0 0 50 50" xml:space="preserve">
<path fill="#0865A6" d="M29.867,3.008c-0.105,0.016-0.211,0.047-0.313,0.094c-0.859,0.426-1.836,1.691-2.023,1.941
	C27.52,5.059,27.508,5.074,27.5,5.09c-0.965,1.445-1.48,3.137-1.5,4.898c-0.012,1.32,0.246,2.629,0.77,3.891
	c1.219,2.926,3.75,5.348,6.762,6.48c0.102,0.035,0.199,0.07,0.375,0.133c0.016,0.008,0.164,0.055,0.188,0.059l0.109,0.039
	c0.156,0.051,0.316,0.102,0.473,0.133c0.793,0.16,1.566,0.25,2.293,0.273c0.125,0,0.25,0.004,0.375,0.004
	c5.48,0,7.605-3.867,8.313-5.156c0.07-0.125,0.121-0.227,0.168-0.289c0-0.004,0-0.004,0.004-0.008
	c0.309-0.457,0.191-1.078-0.266-1.391c-0.453-0.309-1.074-0.191-1.387,0.266h-0.004c-1.461,2.152-3.961,2.805-7.426,1.945
	c-0.258-0.063-0.539-0.16-0.789-0.254c-0.328-0.117-0.656-0.254-0.961-0.402c-0.605-0.301-1.176-0.66-1.691-1.059
	c-3.047-2.363-4.238-7.281-2.457-10.121c0.238-0.379,0.195-0.871-0.105-1.203C30.516,3.078,30.188,2.965,29.867,3.008z M21.008,5
	c-0.227-0.004-0.457,0.07-0.645,0.227c-1.512,1.23-3.059,3.246-3.125,3.328c-0.008,0.016-0.016,0.027-0.027,0.043
	c-2.734,3.98-2.941,9.645-0.523,14.43c0.379,0.758,0.809,1.48,1.266,2.145l0.137,0.195c0.387,0.566,0.82,1.207,1.375,1.707
	c0.191,0.219,0.398,0.43,0.602,0.633l0.098,0.102l0.082,0.082c0.207,0.199,0.418,0.402,0.637,0.598h0.004
	c0.016,0.023,0.039,0.039,0.059,0.059c0.246,0.219,0.496,0.426,0.828,0.688l0.09,0.066c0.258,0.207,0.52,0.402,0.789,0.594
	c0.027,0.02,0.055,0.039,0.082,0.059c0.094,0.063,0.188,0.121,0.281,0.188l0.094,0.063l0.109,0.07
	c0.199,0.133,0.395,0.254,0.672,0.414c0.18,0.109,0.371,0.219,0.496,0.281c0.055,0.031,0.113,0.063,0.25,0.137l0.305,0.16
	c0.016,0.008,0.086,0.039,0.102,0.047c0.199,0.102,0.406,0.199,0.613,0.293l0.316,0.141c0.207,0.09,0.418,0.176,0.676,0.273
	l0.117,0.043c0.008,0.008,0.105,0.043,0.113,0.047c0.188,0.066,0.379,0.133,0.57,0.195l0.438,0.145
	c0.219,0.074,0.473,0.16,0.75,0.207C30,32.883,31.324,33,32.578,33c0.148,0,0.297-0.004,0.441-0.004
	c11.039-0.242,13.91-9.621,13.938-9.715c0.137-0.473-0.086-0.977-0.531-1.188s-0.977-0.063-1.254,0.344
	c-2.797,4.086-8.086,5.813-13.473,4.391c-0.25-0.063-0.492-0.133-0.793-0.23c-0.051-0.016-0.094-0.031-0.176-0.063
	c-0.176-0.055-0.348-0.113-0.543-0.188l-0.277-0.105c-0.16-0.063-0.32-0.125-0.516-0.211l-0.129-0.059
	c-0.238-0.102-0.469-0.215-0.676-0.316l-0.57-0.297c-0.129-0.063-0.242-0.133-0.418-0.238l-0.098-0.055l-0.098-0.059
	c-0.145-0.086-0.289-0.176-0.422-0.27l-0.094-0.059c-0.008-0.004-0.086-0.059-0.094-0.066c-0.117-0.074-0.23-0.148-0.34-0.219
	c-0.242-0.172-0.48-0.352-0.758-0.57l-0.109-0.09c-2.578-2.059-4.484-4.809-5.379-7.758c-0.832-2.707-0.215-6.25,1.652-9.477
	c0.242-0.418,0.152-0.949-0.219-1.262C21.461,5.082,21.234,5,21.008,5z M10.004,8c-0.238,0-0.48,0.086-0.672,0.258
	c-1.91,1.715-3.34,3.938-3.496,4.191C1.75,18.398,2.539,27.645,5.344,33.297c0.055,0.117,0.113,0.23,0.172,0.344l0.039,0.063
	c0.051,0.113,0.109,0.23,0.129,0.254c0.031,0.074,0.078,0.156,0.098,0.18c0.047,0.098,0.094,0.184,0.18,0.332l0.32,0.551
	c0.047,0.074,0.094,0.152,0.109,0.18c0.063,0.102,0.129,0.207,0.195,0.313l0.156,0.25c0.047,0.074,0.094,0.141,0.125,0.18
	c0.156,0.242,0.313,0.484,0.484,0.715c0.008,0.012,0.016,0.02,0.023,0.027l0.063,0.086c0.141,0.203,0.285,0.398,0.414,0.559
	l0.57,0.723c0.008,0.008,0.07,0.082,0.074,0.09l0.082,0.094c0.172,0.211,0.355,0.422,0.539,0.625
	c0.027,0.031,0.055,0.059,0.082,0.09c0.176,0.191,0.355,0.383,0.543,0.582l0.18,0.172c0.148,0.156,0.297,0.309,0.453,0.453
	c0,0.004,0.074,0.074,0.074,0.074l0.156,0.145c0.188,0.18,0.383,0.359,0.531,0.484c0.008,0.012,0.148,0.133,0.16,0.141
	c0.184,0.164,0.367,0.32,0.555,0.473l0.957,0.758c0.16,0.117,0.324,0.234,0.512,0.371c0.063,0.047,0.129,0.094,0.195,0.137
	c0.027,0.023,0.059,0.047,0.078,0.059l0.719,0.48c0.262,0.172,0.523,0.332,0.844,0.523l0.172,0.098
	c0.199,0.117,0.402,0.234,0.594,0.336c0.113,0.063,0.227,0.117,0.324,0.168c0.137,0.074,0.285,0.156,0.512,0.266
	c0.02,0.012,0.18,0.09,0.199,0.098c0.227,0.113,0.457,0.219,0.746,0.348c0,0.004,0.094,0.047,0.094,0.047
	c0.266,0.113,0.523,0.223,0.863,0.359c0.055,0.023,0.109,0.043,0.121,0.047c0.242,0.094,0.496,0.188,0.703,0.262
	c0.02,0.008,0.125,0.051,0.145,0.059c0.277,0.094,0.551,0.184,0.902,0.293c0.059,0.02,0.121,0.039,0.129,0.039l0.199,0.063
	c0.242,0.074,0.484,0.152,0.746,0.203C23.465,46.824,25.281,47,27,47h0.004c14.324,0,18.887-11.527,18.934-11.645
	c0.176-0.465-0.016-0.988-0.453-1.23c-0.43-0.238-0.977-0.125-1.281,0.27c-3.676,4.84-10.609,6.637-18.547,4.813
	c-0.191-0.047-0.387-0.102-0.578-0.16l-0.375-0.113c-0.254-0.078-0.508-0.164-0.754-0.25c-0.004,0-0.117-0.043-0.117-0.043
	c-0.219-0.074-0.438-0.16-0.629-0.234l-0.219-0.086c-0.242-0.098-0.484-0.199-0.719-0.305l-0.137-0.059
	c-0.211-0.098-0.414-0.191-0.617-0.293c-0.016-0.008-0.176-0.086-0.191-0.09c-0.141-0.07-0.281-0.145-0.461-0.242l-0.816-0.438
	c-0.082-0.055-0.168-0.105-0.25-0.148c-0.246-0.152-0.5-0.305-0.75-0.465c-0.059-0.035-0.109-0.074-0.207-0.141
	c-0.172-0.109-0.34-0.223-0.586-0.395l-0.098-0.07c-0.168-0.117-0.332-0.242-0.469-0.344c-0.086-0.063-0.172-0.133-0.313-0.238
	c-0.125-0.098-0.25-0.191-0.367-0.285l-0.219-0.18c-0.184-0.148-0.355-0.305-0.535-0.457c-0.023-0.023-0.043-0.039-0.07-0.059
	c-0.199-0.184-0.402-0.367-0.645-0.598l-0.707-0.703c-0.172-0.176-0.344-0.355-0.539-0.57c-0.18-0.199-0.352-0.398-0.582-0.672
	l-0.422-0.516c-0.051-0.074-0.105-0.148-0.172-0.227c-0.145-0.195-0.289-0.387-0.434-0.59c-3.891-5.359-4.906-16.547-1.875-20.645
	c0.305-0.41,0.25-0.988-0.133-1.336C10.484,8.086,10.242,8,10.004,8z"/>
</svg>
