<svg id="svg" version="1.1" xmlns="http://www.w3.org/2000/svg" xmlns:xlink="http://www.w3.org/1999/xlink" width="400" height="400" viewBox="0, 0, 400,400"><g id="svgg"><path id="path0" d="M197.707 106.687 C 198.316 106.779,198.710 107.022,198.583 107.227 C 198.456 107.432,198.824 107.600,199.400 107.600 C 199.976 107.600,200.344 107.433,200.218 107.229 C 200.091 107.024,200.396 106.779,200.894 106.683 C 201.392 106.587,200.630 106.511,199.200 106.514 C 197.770 106.517,197.098 106.595,197.707 106.687 M194.072 107.408 C 193.341 107.726,192.834 108.132,192.945 108.312 C 193.056 108.491,192.962 108.900,192.736 109.219 C 192.401 109.693,192.366 109.671,192.550 109.100 C 192.674 108.715,192.634 108.400,192.462 108.400 C 191.564 108.400,185.876 115.899,186.177 116.686 C 186.281 116.954,186.165 117.298,185.921 117.449 C 185.630 117.629,185.587 117.530,185.797 117.162 C 186.706 115.568,185.036 117.799,182.924 121.000 C 181.618 122.980,177.515 129.100,173.807 134.600 C 170.099 140.100,167.039 144.918,167.007 145.306 C 166.974 145.695,166.698 146.235,166.393 146.506 C 165.971 146.882,165.978 146.814,166.419 146.223 C 166.783 145.736,166.815 145.558,166.504 145.745 C 165.487 146.355,158.256 157.808,158.323 158.700 C 158.360 159.195,158.202 159.600,157.972 159.600 C 157.741 159.600,157.681 159.392,157.838 159.138 C 158.016 158.850,157.948 158.785,157.655 158.966 C 156.859 159.458,150.336 169.573,150.570 169.952 C 150.692 170.149,150.478 170.555,150.096 170.855 C 149.454 171.358,149.445 171.338,149.981 170.600 C 150.443 169.964,150.447 169.902,150.000 170.300 C 149.692 170.576,147.180 174.168,144.418 178.283 C 140.671 183.865,139.142 185.827,138.398 186.009 L 137.400 186.252 138.488 186.468 C 139.166 186.603,139.482 186.532,139.326 186.280 C 139.189 186.058,139.253 185.986,139.469 186.119 C 139.685 186.252,139.828 186.955,139.787 187.681 C 139.704 189.178,140.576 191.197,141.310 191.206 C 141.657 191.210,141.641 191.313,141.257 191.556 C 139.029 192.968,140.139 193.637,175.200 212.003 C 179.710 214.366,186.370 217.875,190.000 219.803 C 203.397 226.916,210.388 230.609,218.000 234.597 C 222.290 236.844,228.950 240.355,232.800 242.401 C 245.742 249.275,252.555 252.872,260.800 257.184 C 271.098 262.569,275.687 264.997,282.000 268.400 C 287.747 271.499,298.463 277.179,305.293 280.748 C 307.874 282.097,310.259 283.200,310.593 283.200 C 310.927 283.200,311.200 283.449,311.200 283.753 C 311.200 284.058,311.560 284.401,312.000 284.516 C 312.440 284.631,312.800 285.006,312.800 285.350 C 312.800 285.741,313.024 285.889,313.400 285.745 C 314.025 285.505,314.222 286.045,313.700 286.567 C 313.535 286.732,313.400 287.034,313.400 287.239 C 313.400 287.443,312.860 288.073,312.200 288.638 L 311.000 289.666 312.275 288.824 C 314.015 287.674,317.597 283.620,318.727 281.522 C 319.445 280.189,319.480 280.016,318.884 280.754 C 318.420 281.330,318.012 281.542,317.855 281.289 C 317.712 281.057,317.790 280.803,318.028 280.724 C 318.290 280.637,318.353 280.151,318.188 279.493 C 318.037 278.895,317.746 278.510,317.540 278.637 C 317.334 278.765,316.874 278.628,316.518 278.334 C 316.162 278.040,315.554 277.800,315.167 277.800 C 314.194 277.800,300.483 257.942,280.800 228.023 C 278.490 224.512,272.762 215.952,268.071 209.000 C 257.998 194.072,258.137 194.342,259.082 191.496 C 259.465 190.343,259.732 189.246,259.675 189.058 C 259.618 188.870,259.778 188.467,260.031 188.163 C 260.283 187.859,260.385 187.338,260.257 187.005 C 260.129 186.670,260.243 186.397,260.513 186.394 C 260.781 186.391,260.550 186.165,260.000 185.892 C 259.427 185.607,257.244 182.758,254.888 179.219 C 252.626 175.822,250.495 173.002,250.151 172.952 C 249.808 172.901,249.408 172.728,249.263 172.566 C 249.119 172.405,249.330 172.391,249.733 172.537 C 250.602 172.849,250.549 172.696,249.073 170.600 C 248.453 169.720,246.984 167.560,245.809 165.800 C 239.961 157.040,237.878 154.000,237.723 154.000 C 237.629 154.000,237.681 154.208,237.838 154.462 C 238.016 154.750,237.948 154.815,237.655 154.634 C 237.398 154.475,237.301 154.160,237.440 153.935 C 237.697 153.520,233.517 147.036,232.663 146.524 C 232.408 146.371,232.450 146.555,232.757 146.932 C 233.242 147.531,233.231 147.587,232.664 147.369 C 232.301 147.230,232.047 146.735,232.088 146.245 C 232.154 145.446,227.930 138.400,227.385 138.400 C 227.257 138.400,227.288 138.625,227.453 138.900 C 227.657 139.240,227.537 139.224,227.077 138.851 C 226.315 138.233,226.159 137.804,226.852 138.232 C 227.100 138.386,227.235 138.349,227.152 138.151 C 226.623 136.894,210.273 112.831,210.045 112.972 C 209.889 113.069,209.500 112.962,209.181 112.736 C 208.707 112.401,208.729 112.366,209.300 112.550 C 210.314 112.876,210.176 112.497,208.564 110.530 C 206.542 108.063,202.335 105.996,201.912 107.263 C 201.684 107.949,196.890 108.011,196.629 107.332 C 196.372 106.661,195.749 106.680,194.072 107.408 M208.000 110.276 C 208.000 110.398,207.758 110.297,207.463 110.052 C 207.168 109.807,206.823 109.711,206.696 109.838 C 206.569 109.965,206.249 109.666,205.986 109.174 L 205.507 108.280 206.754 109.167 C 207.439 109.655,208.000 110.154,208.000 110.276 M218.793 126.189 C 219.902 127.834,220.538 129.074,220.205 128.947 C 219.872 128.819,219.600 128.464,219.600 128.157 C 219.600 127.851,219.420 127.600,219.200 127.600 C 218.980 127.600,218.800 127.364,218.800 127.075 C 218.800 126.787,218.485 126.193,218.100 125.755 C 217.268 124.809,216.314 123.200,216.584 123.200 C 216.690 123.200,217.683 124.545,218.793 126.189 M221.998 130.797 C 222.639 131.698,222.696 131.935,222.225 131.754 C 221.881 131.622,221.600 131.273,221.600 130.977 C 221.600 130.682,221.285 130.256,220.900 130.032 C 220.515 129.808,220.413 129.619,220.673 129.612 C 220.933 129.605,221.529 130.139,221.998 130.797 M175.300 133.865 C 175.025 133.976,174.800 134.322,174.800 134.633 C 174.800 134.945,174.620 135.200,174.400 135.200 C 174.180 135.200,174.000 135.451,174.000 135.757 C 174.000 136.064,173.732 136.417,173.404 136.543 C 173.016 136.692,173.175 136.216,173.857 135.186 C 174.434 134.314,175.107 133.614,175.353 133.632 C 175.627 133.651,175.606 133.741,175.300 133.865 M361.000 134.800 L 362.200 135.105 361.100 135.153 C 360.108 135.195,359.443 136.000,360.400 136.000 C 360.620 136.000,360.814 136.315,360.832 136.700 C 360.850 137.118,360.944 137.199,361.065 136.900 C 361.176 136.625,361.567 136.387,361.933 136.372 C 362.465 136.349,362.438 136.274,361.800 136.000 C 361.037 135.672,361.041 135.655,361.900 135.628 C 362.395 135.613,362.800 135.764,362.800 135.965 C 362.800 136.165,363.115 136.283,363.500 136.226 C 364.543 136.073,364.346 135.423,363.200 135.239 L 362.200 135.078 363.200 134.779 C 363.922 134.563,363.588 134.482,362.000 134.487 C 360.198 134.493,360.017 134.550,361.000 134.800 M364.561 135.801 C 364.620 136.351,364.788 136.891,364.934 137.001 C 365.080 137.110,365.112 137.082,365.003 136.937 C 364.895 136.792,365.007 136.432,365.252 136.137 C 365.588 135.732,365.563 135.598,365.149 135.594 C 364.718 135.589,364.729 135.505,365.200 135.200 C 365.718 134.865,365.708 134.811,365.127 134.806 C 364.647 134.802,364.485 135.086,364.561 135.801 M357.333 135.720 C 357.333 136.006,357.663 136.265,358.067 136.295 C 358.470 136.325,358.800 136.171,358.800 135.952 C 358.800 135.732,358.620 135.664,358.400 135.800 C 358.180 135.936,358.000 135.857,358.000 135.624 C 358.000 135.391,357.850 135.200,357.667 135.200 C 357.483 135.200,357.333 135.434,357.333 135.720 M366.033 135.321 C 366.125 135.388,366.740 135.758,367.400 136.145 L 368.600 136.847 367.656 136.024 C 367.136 135.571,366.521 135.200,366.289 135.200 C 366.057 135.200,365.942 135.254,366.033 135.321 M225.755 136.588 C 226.307 137.429,226.313 137.542,225.801 137.345 C 225.471 137.218,225.200 136.879,225.200 136.591 C 225.200 136.302,224.975 135.976,224.700 135.865 C 224.380 135.736,224.364 135.652,224.654 135.632 C 224.904 135.614,225.399 136.045,225.755 136.588 M369.855 138.600 C 370.780 140.179,370.800 140.203,370.800 139.711 C 370.800 139.479,370.429 138.864,369.976 138.344 L 369.153 137.400 369.855 138.600 M359.800 139.200 C 359.645 139.451,360.529 139.600,362.176 139.600 C 363.659 139.600,364.800 139.426,364.800 139.200 C 364.800 138.978,363.741 138.800,362.424 138.800 C 361.117 138.800,359.936 138.980,359.800 139.200 M370.276 141.169 C 370.382 141.576,370.276 142.029,370.039 142.176 C 369.774 142.340,369.700 142.204,369.847 141.821 C 369.978 141.479,369.902 141.200,369.678 141.200 C 369.093 141.200,369.352 142.399,370.028 142.820 C 370.443 143.078,370.679 142.932,370.886 142.288 C 371.043 141.800,371.074 142.156,370.954 143.079 C 370.835 144.002,370.926 145.082,371.156 145.479 C 371.643 146.315,371.752 142.260,371.272 141.200 C 370.872 140.318,370.047 140.292,370.276 141.169 M366.400 143.600 C 366.400 144.863,366.553 145.553,366.800 145.400 C 367.020 145.264,367.200 144.454,367.200 143.600 C 367.200 142.746,367.020 141.936,366.800 141.800 C 366.553 141.647,366.400 142.337,366.400 143.600 M27.301 143.800 C 27.305 144.680,27.387 144.993,27.483 144.495 C 27.579 143.998,27.575 143.278,27.475 142.895 C 27.375 142.513,27.296 142.920,27.301 143.800 M369.200 144.200 C 369.200 144.750,369.365 145.200,369.567 145.200 C 370.035 145.200,370.337 144.349,370.098 143.700 C 369.780 142.834,369.200 143.157,369.200 144.200 M234.398 149.197 C 235.039 150.098,235.096 150.335,234.625 150.154 C 234.281 150.022,234.000 149.673,234.000 149.377 C 234.000 149.082,233.685 148.656,233.300 148.432 C 232.915 148.208,232.813 148.019,233.073 148.012 C 233.333 148.005,233.929 148.539,234.398 149.197 M164.100 150.265 C 163.825 150.376,163.600 150.722,163.600 151.033 C 163.600 151.345,163.414 151.600,163.186 151.600 C 162.905 151.600,162.910 151.342,163.200 150.800 C 163.435 150.360,163.847 150.014,164.114 150.032 C 164.480 150.055,164.477 150.113,164.100 150.265 M236.000 151.600 C 236.290 152.142,236.295 152.400,236.014 152.400 C 235.786 152.400,235.600 152.145,235.600 151.833 C 235.600 151.522,235.375 151.176,235.100 151.065 C 234.723 150.913,234.720 150.855,235.086 150.832 C 235.353 150.814,235.765 151.160,236.000 151.600 M239.600 157.200 C 239.890 157.742,239.895 158.000,239.614 158.000 C 239.386 158.000,239.200 157.745,239.200 157.433 C 239.200 157.122,238.975 156.776,238.700 156.665 C 238.323 156.513,238.320 156.455,238.686 156.432 C 238.953 156.414,239.365 156.760,239.600 157.200 M157.052 160.875 C 156.693 161.076,156.400 161.482,156.400 161.777 C 156.400 162.073,156.119 162.422,155.777 162.554 C 155.374 162.708,155.551 162.237,156.277 161.222 C 156.894 160.359,157.468 159.845,157.552 160.081 C 157.635 160.317,157.410 160.674,157.052 160.875 M245.107 165.100 C 246.401 166.969,246.495 167.211,245.823 166.954 C 245.483 166.823,245.290 166.578,245.395 166.408 C 245.499 166.239,245.147 165.628,244.612 165.050 C 244.076 164.473,243.797 164.000,243.992 164.000 C 244.186 164.000,244.688 164.495,245.107 165.100 M149.700 171.930 C 149.425 172.104,148.917 172.597,148.570 173.024 C 148.224 173.451,148.072 173.530,148.233 173.200 C 148.731 172.176,149.279 171.600,149.749 171.606 C 150.044 171.610,150.027 171.722,149.700 171.930 M145.700 177.865 C 145.425 177.976,145.200 178.302,145.200 178.591 C 145.200 178.879,144.929 179.218,144.599 179.345 C 144.087 179.542,144.093 179.429,144.645 178.588 C 145.001 178.045,145.496 177.614,145.746 177.632 C 146.036 177.652,146.020 177.736,145.700 177.865 M255.662 181.110 C 256.326 182.159,256.361 182.360,255.844 182.161 C 255.492 182.027,255.304 181.755,255.426 181.558 C 255.548 181.361,255.457 181.200,255.224 181.200 C 254.991 181.200,254.800 180.945,254.800 180.633 C 254.800 180.322,254.616 179.975,254.390 179.863 C 254.130 179.734,254.138 179.688,254.411 179.737 C 254.647 179.779,255.210 180.397,255.662 181.110 M141.862 183.393 C 141.608 183.939,141.164 184.478,140.875 184.590 C 140.581 184.704,140.726 184.266,141.202 183.597 C 142.239 182.140,142.480 182.066,141.862 183.393 M258.252 184.692 C 259.541 186.268,259.618 186.452,258.713 185.792 C 258.114 185.357,257.619 184.769,257.613 184.487 C 257.606 184.206,257.330 183.871,257.000 183.745 C 256.480 183.545,256.127 182.800,256.552 182.800 C 256.635 182.800,257.400 183.652,258.252 184.692 M316.466 284.300 C 316.033 284.905,315.166 285.848,314.539 286.396 C 313.699 287.131,313.761 287.000,314.778 285.896 C 315.537 285.073,315.987 284.394,315.778 284.387 C 315.436 284.376,316.748 283.200,317.104 283.200 C 317.187 283.200,316.900 283.695,316.466 284.300 M84.200 286.800 C 85.283 287.900,86.260 288.800,86.370 288.800 C 86.480 288.800,85.683 287.900,84.600 286.800 C 83.517 285.700,82.540 284.800,82.430 284.800 C 82.320 284.800,83.117 285.700,84.200 286.800 " stroke="none" fill="#fc8c8c" fill-rule="evenodd"></path><path id="path1" d="M190.575 109.700 L 189.400 111.000 190.700 109.825 C 191.912 108.730,192.184 108.400,191.875 108.400 C 191.806 108.400,191.221 108.985,190.575 109.700 M190.196 111.207 C 190.058 111.430,189.791 111.518,189.603 111.402 C 189.415 111.286,188.886 111.717,188.428 112.360 C 187.681 113.410,187.667 113.519,188.296 113.427 C 188.681 113.371,188.997 112.982,188.998 112.563 C 188.999 112.145,189.216 111.802,189.480 111.801 C 189.744 111.800,190.185 111.575,190.460 111.300 C 190.735 111.025,190.845 110.800,190.704 110.800 C 190.563 110.800,190.334 110.983,190.196 111.207 M211.374 115.242 C 211.197 115.529,211.245 115.619,211.493 115.466 C 211.988 115.160,212.964 116.211,212.652 116.716 C 212.533 116.909,212.688 117.067,212.996 117.067 C 213.640 117.067,213.228 116.053,212.257 115.248 C 211.801 114.869,211.605 114.868,211.374 115.242 M185.121 117.100 C 182.734 120.734,182.767 120.667,183.342 120.667 C 183.643 120.667,183.869 120.382,183.844 120.033 C 183.820 119.685,184.004 119.438,184.253 119.484 C 184.502 119.531,184.682 119.261,184.653 118.884 C 184.624 118.508,184.804 118.238,185.053 118.284 C 185.302 118.331,185.482 118.061,185.453 117.684 C 185.424 117.308,185.586 117.032,185.814 117.071 C 186.042 117.111,186.229 116.796,186.229 116.371 C 186.229 115.378,186.270 115.350,185.121 117.100 M182.000 122.000 C 181.749 122.469,181.803 122.667,182.183 122.667 C 182.499 122.667,182.628 122.417,182.494 122.068 C 182.351 121.696,182.431 121.572,182.704 121.741 C 182.947 121.891,183.239 121.860,183.355 121.673 C 183.470 121.486,183.293 121.333,182.961 121.333 C 182.629 121.333,182.196 121.633,182.000 122.000 M178.456 126.967 C 177.739 127.904,177.657 128.267,178.162 128.267 C 178.452 128.267,178.669 127.986,178.644 127.643 C 178.620 127.300,178.810 127.015,179.067 127.010 C 179.773 126.995,180.090 126.533,179.394 126.533 C 179.060 126.533,178.638 126.728,178.456 126.967 M219.833 128.367 C 219.962 128.495,220.277 128.604,220.533 128.610 C 220.790 128.615,220.973 128.942,220.940 129.336 C 220.907 129.731,220.980 129.953,221.103 129.830 C 221.226 129.707,221.606 129.830,221.948 130.103 C 222.294 130.381,222.187 130.055,221.705 129.367 C 221.229 128.688,220.561 128.133,220.220 128.133 C 219.879 128.133,219.705 128.238,219.833 128.367 M175.711 131.300 C 174.940 132.298,174.845 132.667,175.362 132.667 C 175.652 132.667,175.869 132.382,175.844 132.033 C 175.820 131.685,176.038 131.449,176.330 131.510 C 176.621 131.570,176.745 131.435,176.606 131.210 C 176.281 130.684,176.180 130.694,175.711 131.300 M172.269 136.367 C 170.435 138.932,170.370 139.067,170.962 139.067 C 171.252 139.067,171.469 138.786,171.444 138.443 C 171.420 138.100,171.670 137.815,171.999 137.810 C 172.329 137.804,172.599 137.440,172.599 137.001 C 172.600 136.562,172.810 136.202,173.067 136.201 C 173.323 136.200,173.683 136.036,173.867 135.836 C 174.063 135.621,173.974 135.603,173.648 135.792 C 173.271 136.010,173.155 135.936,173.281 135.556 C 173.383 135.250,173.662 135.000,173.900 135.000 C 174.138 135.000,174.438 134.895,174.567 134.767 C 174.695 134.638,174.525 134.533,174.190 134.533 C 173.854 134.533,172.990 135.358,172.269 136.367 M357.200 134.974 C 354.231 136.072,343.578 141.640,343.790 141.983 C 343.913 142.182,343.802 142.475,343.545 142.634 C 343.252 142.815,343.184 142.750,343.362 142.462 C 343.746 141.841,343.392 141.880,341.967 142.617 C 341.311 142.956,340.873 143.394,340.993 143.589 C 341.114 143.785,341.002 144.075,340.745 144.234 C 340.452 144.415,340.384 144.350,340.562 144.062 C 341.014 143.329,340.645 143.470,335.977 145.812 C 333.169 147.220,331.668 148.187,331.845 148.473 C 332.013 148.744,331.944 148.813,331.674 148.645 C 331.042 148.255,328.709 149.529,329.049 150.079 C 329.211 150.342,329.142 150.412,328.881 150.250 C 328.314 149.900,317.091 155.500,317.390 155.983 C 317.513 156.182,317.402 156.475,317.145 156.634 C 316.852 156.815,316.784 156.750,316.962 156.462 C 317.317 155.888,316.983 155.874,315.963 156.420 C 315.531 156.651,315.276 156.999,315.395 157.192 C 315.515 157.386,315.402 157.675,315.145 157.834 C 314.852 158.015,314.784 157.950,314.962 157.662 C 315.407 156.942,315.031 157.076,311.176 159.012 C 309.191 160.009,307.674 160.997,307.805 161.208 C 307.941 161.429,307.751 161.479,307.355 161.327 C 306.893 161.150,306.762 161.215,306.955 161.527 C 307.138 161.823,307.032 161.910,306.662 161.769 C 305.937 161.490,301.089 163.897,301.391 164.386 C 301.513 164.583,301.402 164.875,301.145 165.034 C 300.852 165.215,300.784 165.150,300.962 164.862 C 301.317 164.288,300.983 164.274,299.963 164.820 C 299.531 165.051,299.300 165.439,299.451 165.682 C 299.611 165.942,299.541 166.011,299.279 165.849 C 298.632 165.449,291.502 169.118,291.846 169.674 C 292.005 169.932,291.945 170.013,291.705 169.865 C 291.158 169.527,287.516 171.140,287.797 171.595 C 287.916 171.787,287.802 172.075,287.545 172.234 C 287.252 172.415,287.184 172.350,287.362 172.062 C 287.806 171.343,287.563 171.444,282.631 174.035 C 279.859 175.490,278.102 176.641,278.260 176.896 C 278.412 177.143,278.335 177.207,278.078 177.048 C 277.512 176.698,272.693 179.103,272.991 179.586 C 273.113 179.783,273.002 180.075,272.745 180.234 C 272.452 180.415,272.384 180.350,272.562 180.062 C 272.964 179.410,272.599 179.482,270.770 180.415 C 269.812 180.904,269.282 181.410,269.448 181.677 C 269.608 181.937,269.543 182.012,269.293 181.858 C 268.626 181.446,262.684 184.288,263.032 184.852 C 263.220 185.156,263.151 185.217,262.838 185.023 C 262.570 184.858,261.818 184.944,261.166 185.214 C 260.140 185.639,259.859 185.604,259.090 184.953 L 258.200 184.200 258.962 185.100 C 259.381 185.595,260.011 186.014,260.362 186.032 C 260.740 186.050,260.805 186.142,260.522 186.257 C 260.260 186.364,260.145 186.712,260.267 187.031 C 260.389 187.350,260.283 187.859,260.031 188.163 C 259.778 188.467,259.618 188.870,259.675 189.058 C 259.732 189.246,259.465 190.343,259.082 191.496 C 258.137 194.342,257.998 194.072,268.071 209.000 C 272.762 215.952,278.490 224.512,280.800 228.023 C 300.483 257.942,314.194 277.800,315.167 277.800 C 315.554 277.800,316.162 278.040,316.518 278.334 C 316.874 278.628,317.334 278.765,317.540 278.637 C 317.746 278.510,318.034 278.882,318.181 279.465 C 318.343 280.111,318.264 280.637,317.980 280.812 C 317.627 281.031,317.628 281.170,317.985 281.390 C 318.243 281.550,318.358 281.933,318.240 282.240 C 317.862 283.226,318.264 282.844,319.376 281.164 C 319.971 280.265,320.357 279.266,320.234 278.944 C 320.110 278.622,320.164 278.454,320.354 278.571 C 320.829 278.865,322.940 272.950,322.572 272.355 C 322.398 272.073,322.446 271.981,322.688 272.131 C 323.157 272.420,325.272 267.183,325.350 265.538 C 325.377 264.954,325.520 264.551,325.668 264.642 C 326.079 264.896,326.896 262.079,326.567 261.546 C 326.406 261.286,326.448 261.182,326.660 261.313 C 327.171 261.629,329.354 256.573,328.974 255.957 C 328.797 255.672,328.845 255.581,329.092 255.733 C 329.320 255.874,329.702 255.497,329.940 254.895 C 331.575 250.756,332.395 248.164,332.217 247.699 C 332.093 247.378,332.187 247.268,332.447 247.429 C 332.744 247.612,332.793 247.408,332.600 246.800 C 332.416 246.221,332.461 245.991,332.727 246.155 C 333.226 246.463,334.930 242.115,334.623 241.315 C 334.505 241.009,334.564 240.854,334.754 240.972 C 335.432 241.391,338.681 233.178,338.167 232.346 C 338.001 232.078,338.048 231.983,338.276 232.124 C 338.504 232.264,339.329 230.612,340.193 228.285 C 341.027 226.038,342.345 222.761,343.122 221.002 C 343.898 219.243,344.533 217.316,344.533 216.720 C 344.533 216.123,344.662 215.715,344.820 215.812 C 345.284 216.099,350.816 200.907,350.524 200.147 C 350.364 199.730,350.423 199.567,350.677 199.724 C 351.190 200.041,353.706 194.697,353.761 193.176 C 353.782 192.572,353.954 192.173,354.143 192.289 C 354.331 192.405,354.357 192.095,354.200 191.600 C 354.028 191.057,354.067 190.794,354.299 190.937 C 354.851 191.278,355.672 189.258,355.370 188.304 C 355.210 187.802,355.269 187.595,355.525 187.754 C 356.036 188.070,356.965 185.390,356.567 184.746 C 356.403 184.481,356.448 184.383,356.670 184.520 C 357.158 184.822,360.893 176.201,360.916 174.718 C 360.926 174.122,361.066 173.717,361.229 173.818 C 361.669 174.090,362.802 170.472,362.513 169.718 C 362.355 169.306,362.424 169.167,362.702 169.339 C 363.268 169.689,364.875 165.460,364.523 164.544 C 364.363 164.126,364.423 163.967,364.681 164.126 C 365.207 164.451,366.601 161.359,369.414 153.633 C 371.778 147.139,371.823 146.927,371.147 145.442 C 370.807 144.696,370.811 143.978,371.165 142.574 C 371.677 140.541,370.427 136.875,369.300 137.100 C 369.025 137.155,368.845 136.975,368.900 136.700 C 369.088 135.760,365.453 134.315,363.736 134.648 C 362.435 134.900,362.341 134.980,363.124 135.173 C 363.632 135.298,364.042 135.569,364.035 135.775 C 364.018 136.260,362.800 136.447,362.800 135.965 C 362.800 135.764,362.395 135.613,361.900 135.628 C 361.041 135.655,361.037 135.672,361.800 136.000 C 362.438 136.274,362.465 136.349,361.933 136.372 C 361.567 136.387,361.176 136.625,361.065 136.900 C 360.944 137.199,360.850 137.118,360.832 136.700 C 360.814 136.315,360.620 136.000,360.400 136.000 C 359.443 136.000,360.108 135.195,361.100 135.153 L 362.200 135.105 361.000 134.800 C 359.295 134.366,358.780 134.390,357.200 134.974 M359.680 135.280 C 359.307 135.653,359.093 135.653,358.720 135.280 C 358.347 134.907,358.453 134.800,359.200 134.800 C 359.947 134.800,360.053 134.907,359.680 135.280 M365.200 135.200 C 364.729 135.505,364.718 135.589,365.149 135.594 C 365.563 135.598,365.588 135.732,365.252 136.137 C 365.007 136.432,364.940 136.821,365.103 137.001 C 365.267 137.181,365.172 137.197,364.893 137.036 C 364.615 136.876,364.495 136.569,364.628 136.355 C 364.760 136.140,364.651 135.703,364.385 135.382 C 363.985 134.900,364.065 134.801,364.851 134.806 C 365.610 134.811,365.680 134.890,365.200 135.200 M358.000 135.624 C 358.000 135.857,358.180 135.936,358.400 135.800 C 358.620 135.664,358.800 135.732,358.800 135.952 C 358.800 136.171,358.470 136.325,358.067 136.295 C 357.363 136.242,356.982 135.200,357.667 135.200 C 357.850 135.200,358.000 135.391,358.000 135.624 M367.656 136.024 L 368.600 136.847 367.400 136.145 C 365.821 135.220,365.797 135.200,366.289 135.200 C 366.521 135.200,367.136 135.571,367.656 136.024 M370.800 139.711 C 370.800 140.203,370.780 140.179,369.855 138.600 L 369.153 137.400 369.976 138.344 C 370.429 138.864,370.800 139.479,370.800 139.711 M364.800 139.200 C 364.800 139.426,363.659 139.600,362.176 139.600 C 360.529 139.600,359.645 139.451,359.800 139.200 C 359.936 138.980,361.117 138.800,362.424 138.800 C 363.741 138.800,364.800 138.978,364.800 139.200 M227.797 139.930 C 227.945 140.079,228.277 140.204,228.533 140.210 C 228.790 140.215,228.980 140.500,228.956 140.843 C 228.931 141.186,229.158 141.467,229.460 141.467 C 230.283 141.467,229.158 139.899,228.237 139.764 C 227.846 139.707,227.648 139.782,227.797 139.930 M371.035 141.367 C 370.912 141.825,370.808 142.434,370.805 142.720 C 370.802 143.088,370.605 143.131,370.130 142.865 C 369.382 142.446,369.044 141.200,369.678 141.200 C 369.902 141.200,369.978 141.479,369.847 141.821 C 369.700 142.204,369.774 142.340,370.039 142.176 C 370.276 142.029,370.389 141.600,370.290 141.222 C 370.181 140.807,370.338 140.533,370.684 140.533 C 371.071 140.533,371.185 140.805,371.035 141.367 M367.200 143.600 C 367.200 144.454,367.020 145.264,366.800 145.400 C 366.553 145.553,366.400 144.863,366.400 143.600 C 366.400 142.337,366.553 141.647,366.800 141.800 C 367.020 141.936,367.200 142.746,367.200 143.600 M371.701 143.800 C 371.705 144.680,371.787 144.993,371.883 144.495 C 371.979 143.998,371.975 143.278,371.875 142.895 C 371.775 142.513,371.696 142.920,371.701 143.800 M370.098 143.700 C 370.337 144.349,370.035 145.200,369.567 145.200 C 369.365 145.200,369.200 144.750,369.200 144.200 C 369.200 143.157,369.780 142.834,370.098 143.700 M165.568 146.273 C 163.653 148.896,163.567 149.067,164.162 149.067 C 164.452 149.067,164.669 148.786,164.644 148.443 C 164.620 148.100,164.870 147.807,165.200 147.791 C 165.530 147.776,165.749 147.528,165.686 147.240 C 165.554 146.632,166.362 145.529,166.760 145.775 C 166.908 145.866,167.029 145.594,167.029 145.171 C 167.029 144.193,167.158 144.096,165.568 146.273 M232.198 146.066 C 232.233 146.543,232.556 146.976,232.915 147.029 C 233.514 147.117,233.516 147.044,232.939 146.162 C 232.167 144.984,232.117 144.978,232.198 146.066 M233.376 148.074 C 233.208 148.363,233.219 148.467,233.399 148.303 C 233.764 147.973,234.800 148.689,234.800 149.273 C 234.800 149.479,234.575 149.518,234.300 149.359 C 234.010 149.192,233.940 149.224,234.133 149.436 C 234.317 149.636,234.677 149.804,234.933 149.810 C 235.190 149.815,235.380 150.100,235.356 150.443 C 235.331 150.786,235.549 151.067,235.839 151.067 C 236.240 151.067,236.203 150.788,235.683 149.906 C 234.639 148.134,233.749 147.427,233.376 148.074 M162.000 151.600 C 161.749 152.069,161.803 152.267,162.183 152.267 C 162.499 152.267,162.628 152.017,162.494 151.668 C 162.351 151.296,162.431 151.172,162.704 151.341 C 162.947 151.491,163.239 151.460,163.355 151.273 C 163.470 151.086,163.293 150.933,162.961 150.933 C 162.629 150.933,162.196 151.233,162.000 151.600 M236.626 153.242 C 236.752 153.446,237.053 153.491,237.296 153.341 C 237.578 153.166,237.645 153.305,237.482 153.730 C 237.326 154.137,237.415 154.354,237.714 154.295 C 237.981 154.243,238.180 154.485,238.156 154.833 C 238.131 155.182,238.355 155.467,238.653 155.467 C 239.418 155.467,237.878 153.088,237.032 152.964 C 236.682 152.912,236.499 153.037,236.626 153.242 M159.693 155.100 C 158.485 156.844,158.403 157.067,158.962 157.067 C 159.252 157.067,159.469 156.782,159.444 156.433 C 159.420 156.085,159.604 155.838,159.853 155.884 C 160.102 155.931,160.282 155.661,160.253 155.284 C 160.224 154.908,160.438 154.649,160.730 154.710 C 161.021 154.770,161.145 154.635,161.006 154.410 C 160.643 153.822,160.540 153.876,159.693 155.100 M157.376 158.700 C 156.858 159.496,156.828 159.663,157.267 159.303 C 157.601 159.030,158.002 158.935,158.158 159.091 C 158.314 159.248,158.312 159.037,158.153 158.622 C 157.936 158.058,157.997 157.951,158.394 158.196 C 158.746 158.414,158.828 158.369,158.638 158.062 C 158.244 157.425,158.187 157.454,157.376 158.700 M240.994 159.610 C 240.855 159.835,240.979 159.970,241.270 159.910 C 241.570 159.848,241.800 160.148,241.801 160.600 C 241.801 161.043,242.068 161.400,242.401 161.401 C 242.730 161.402,243.002 161.715,243.004 162.098 C 243.007 162.480,243.187 162.810,243.404 162.831 C 243.622 162.851,244.060 163.078,244.378 163.334 C 244.696 163.590,244.179 162.765,243.230 161.500 C 241.355 159.001,241.365 159.010,240.994 159.610 M247.794 169.610 C 247.655 169.835,247.779 169.970,248.070 169.910 C 248.370 169.848,248.600 170.148,248.601 170.600 C 248.601 171.040,248.781 171.370,249.001 171.334 C 249.220 171.298,249.662 171.478,249.983 171.734 C 250.303 171.990,250.057 171.525,249.435 170.700 C 248.188 169.044,248.156 169.023,247.794 169.610 M252.998 177.203 C 252.856 177.432,252.979 177.570,253.270 177.510 C 253.562 177.449,253.780 177.685,253.756 178.033 C 253.731 178.382,253.946 178.667,254.234 178.667 C 254.611 178.667,254.651 178.468,254.376 177.956 C 253.864 176.999,253.311 176.697,252.998 177.203 M315.375 286.100 L 314.200 287.400 315.500 286.225 C 316.215 285.579,316.800 284.994,316.800 284.925 C 316.800 284.616,316.470 284.888,315.375 286.100 " stroke="none" fill="#fcc3c3" fill-rule="evenodd"></path><path id="path2" d="M195.197 106.352 C 191.506 107.556,190.261 108.851,184.441 117.554 C 181.849 121.429,176.235 129.786,171.964 136.124 C 167.694 142.462,162.670 149.960,160.800 152.787 C 155.453 160.868,150.914 167.622,149.368 169.800 C 148.586 170.900,146.403 174.140,144.515 177.000 C 140.288 183.406,138.898 185.200,138.161 185.200 C 137.495 185.200,126.487 179.763,125.600 178.995 C 125.270 178.710,122.570 177.227,119.600 175.700 C 109.713 170.617,99.562 165.266,99.078 164.883 C 98.815 164.675,95.090 162.706,90.800 160.508 C 86.510 158.310,82.110 155.946,81.022 155.256 C 79.934 154.565,78.919 154.000,78.768 154.000 C 78.616 154.000,76.087 152.715,73.146 151.144 C 70.206 149.573,66.720 147.754,65.400 147.101 C 64.080 146.448,59.921 144.228,56.157 142.168 C 44.109 135.574,41.231 134.308,37.797 134.087 C 28.979 133.521,24.823 139.498,27.566 148.801 C 28.813 153.029,32.491 162.860,34.300 166.800 C 34.957 168.230,36.438 172.010,37.592 175.200 C 38.745 178.390,40.042 181.720,40.473 182.600 C 40.905 183.480,42.079 186.360,43.083 189.000 C 46.697 198.503,47.542 200.626,48.364 202.281 C 48.824 203.205,49.200 204.127,49.200 204.330 C 49.200 204.796,55.863 222.185,56.660 223.800 C 57.425 225.348,60.000 231.982,60.000 232.402 C 60.000 232.580,61.419 236.206,63.154 240.462 C 64.888 244.718,67.251 250.720,68.404 253.800 C 69.557 256.880,70.660 259.601,70.854 259.846 C 71.186 260.264,74.195 268.063,76.078 273.388 C 80.534 285.983,84.237 290.145,93.400 292.854 L 96.600 293.800 199.400 293.800 C 311.969 293.800,303.798 293.979,309.477 291.387 C 312.679 289.925,317.074 285.873,318.712 282.871 C 319.981 280.545,319.606 280.786,317.677 283.536 C 316.776 284.821,315.175 286.563,314.119 287.407 C 311.916 289.171,310.875 289.828,312.381 288.505 C 312.941 288.013,313.400 287.443,313.400 287.239 C 313.400 287.034,313.535 286.732,313.700 286.567 C 314.222 286.045,314.025 285.505,313.400 285.745 C 313.024 285.889,312.800 285.741,312.800 285.350 C 312.800 285.006,312.440 284.631,312.000 284.516 C 311.560 284.401,311.200 284.058,311.200 283.753 C 311.200 283.449,310.927 283.200,310.593 283.200 C 310.259 283.200,307.874 282.097,305.293 280.748 C 298.463 277.179,287.747 271.499,282.000 268.400 C 275.687 264.997,271.098 262.569,260.800 257.184 C 252.555 252.872,245.742 249.275,232.800 242.401 C 228.950 240.355,222.290 236.844,218.000 234.597 C 210.388 230.609,203.397 226.916,190.000 219.803 C 186.370 217.875,179.710 214.366,175.200 212.003 C 140.139 193.637,139.029 192.968,141.257 191.556 C 141.641 191.313,141.657 191.210,141.310 191.206 C 139.961 191.189,139.179 186.363,140.400 185.591 C 140.730 185.383,140.797 185.209,140.549 185.206 C 140.001 185.199,139.123 186.190,139.417 186.484 C 139.533 186.600,139.161 186.605,138.590 186.496 L 137.552 186.298 138.473 185.839 C 139.381 185.386,142.865 180.358,156.656 159.600 C 160.529 153.770,164.142 148.370,164.684 147.600 C 166.062 145.645,171.293 137.879,174.921 132.400 C 176.597 129.870,178.789 126.630,179.792 125.200 C 180.796 123.770,183.274 120.080,185.299 117.000 C 191.176 108.060,193.385 106.400,199.400 106.400 C 206.183 106.400,206.825 107.006,218.240 124.200 C 223.891 132.711,224.011 132.925,222.945 132.541 C 222.535 132.393,222.319 132.405,222.463 132.566 C 222.608 132.728,223.000 132.900,223.333 132.949 C 224.005 133.048,228.266 138.723,230.779 142.867 C 231.669 144.334,233.014 146.344,233.769 147.332 C 234.524 148.321,236.540 151.351,238.251 154.065 C 239.961 156.779,242.135 160.023,243.082 161.273 C 244.030 162.523,245.659 164.885,246.702 166.522 C 247.746 168.158,250.169 171.830,252.086 174.680 C 255.871 180.306,256.403 181.289,255.545 181.070 C 255.245 180.994,255.136 181.007,255.302 181.100 C 255.469 181.192,255.479 181.478,255.326 181.734 C 255.153 182.023,255.289 182.003,255.684 181.683 C 256.228 181.243,256.446 181.341,257.161 182.345 C 258.094 183.656,258.238 184.194,257.538 183.762 C 257.250 183.584,257.185 183.652,257.366 183.945 C 257.525 184.202,257.799 184.324,257.974 184.216 C 258.150 184.108,258.615 184.375,259.009 184.809 C 259.402 185.244,259.934 185.600,260.190 185.600 C 260.446 185.600,259.923 184.812,259.028 183.849 C 258.133 182.885,255.893 179.780,254.051 176.949 C 248.269 168.057,246.554 165.499,244.035 162.000 C 242.689 160.130,240.215 156.440,238.539 153.800 C 236.863 151.160,235.001 148.370,234.402 147.600 C 233.803 146.830,232.553 144.940,231.626 143.400 C 230.698 141.860,229.137 139.520,228.157 138.200 C 227.177 136.880,225.251 134.090,223.877 132.000 C 209.649 110.359,208.389 108.659,205.400 107.088 C 203.663 106.175,197.175 105.707,195.197 106.352 M196.617 107.300 C 196.792 107.755,198.451 107.894,201.100 107.675 C 202.346 107.571,202.237 106.800,200.976 106.800 C 200.396 106.800,200.060 106.973,200.200 107.200 C 200.341 107.428,199.996 107.600,199.400 107.600 C 198.804 107.600,198.459 107.428,198.600 107.200 C 198.744 106.967,198.342 106.800,197.636 106.800 C 196.832 106.800,196.490 106.968,196.617 107.300 M360.300 134.293 C 361.235 134.377,362.765 134.377,363.700 134.293 C 364.635 134.209,363.870 134.140,362.000 134.140 C 360.130 134.140,359.365 134.209,360.300 134.293 M367.835 135.556 C 368.515 135.971,369.460 136.804,369.935 137.409 C 370.411 138.013,370.800 138.325,370.800 138.100 C 370.800 137.545,367.720 134.800,367.099 134.801 C 366.824 134.802,367.156 135.142,367.835 135.556 M27.483 144.495 C 27.387 144.993,27.305 144.680,27.301 143.800 C 27.296 142.920,27.375 142.513,27.475 142.895 C 27.575 143.278,27.579 143.998,27.483 144.495 M267.600 181.800 C 266.610 182.330,265.942 182.772,266.116 182.782 C 266.541 182.806,269.600 181.234,269.600 180.992 C 269.600 180.727,269.617 180.720,267.600 181.800 M316.176 283.787 C 315.749 284.110,315.570 284.380,315.778 284.387 C 315.987 284.394,315.537 285.075,314.778 285.900 L 313.400 287.400 314.894 286.027 C 315.716 285.272,316.304 284.570,316.200 284.467 C 316.097 284.364,316.325 284.042,316.706 283.752 C 317.088 283.463,317.299 283.220,317.176 283.213 C 317.054 283.206,316.604 283.464,316.176 283.787 M84.600 286.800 C 85.683 287.900,86.480 288.800,86.370 288.800 C 86.260 288.800,85.283 287.900,84.200 286.800 C 83.117 285.700,82.320 284.800,82.430 284.800 C 82.540 284.800,83.517 285.700,84.600 286.800 " stroke="none" fill="#fc4c4c" fill-rule="evenodd"></path></g></svg>